<mxfile host="Electron" modified="2024-07-12T06:48:14.625Z" agent="Mozilla/5.0 (Windows NT 10.0; Win64; x64) AppleWebKit/537.36 (KHTML, like Gecko) draw.io/24.5.3 Chrome/124.0.6367.207 Electron/30.0.6 Safari/537.36" etag="kA-Z_E1aSGcDjzeWvm5u" version="24.5.3" type="device">
  <diagram name="Page-1" id="395TsGlSHRffOwpeGZei">
    <mxGraphModel dx="588" dy="414" grid="1" gridSize="10" guides="1" tooltips="1" connect="1" arrows="1" fold="1" page="1" pageScale="1" pageWidth="1169" pageHeight="827" math="0" shadow="0">
      <root>
        <mxCell id="0" />
        <mxCell id="1" parent="0" />
        <mxCell id="vg-C_wfHYlq3jXJulKcA-71" value="" style="group" vertex="1" connectable="0" parent="1">
          <mxGeometry x="70" y="43" width="1030" height="740.25" as="geometry" />
        </mxCell>
        <mxCell id="vg-C_wfHYlq3jXJulKcA-5" value="" style="strokeWidth=2;html=1;shape=mxgraph.flowchart.annotation_2;align=left;labelPosition=right;pointerEvents=1;direction=south;" vertex="1" parent="vg-C_wfHYlq3jXJulKcA-71">
          <mxGeometry x="471" y="60" width="341" height="50" as="geometry" />
        </mxCell>
        <mxCell id="vg-C_wfHYlq3jXJulKcA-6" value="User Exists?" style="strokeWidth=2;html=1;shape=mxgraph.flowchart.decision;whiteSpace=wrap;" vertex="1" parent="vg-C_wfHYlq3jXJulKcA-71">
          <mxGeometry x="417" y="199" width="107.5" height="100" as="geometry" />
        </mxCell>
        <mxCell id="vg-C_wfHYlq3jXJulKcA-7" value="Start" style="strokeWidth=2;html=1;shape=mxgraph.flowchart.start_1;whiteSpace=wrap;" vertex="1" parent="vg-C_wfHYlq3jXJulKcA-71">
          <mxGeometry x="591.5" width="100" height="60" as="geometry" />
        </mxCell>
        <mxCell id="vg-C_wfHYlq3jXJulKcA-8" value="Login" style="rounded=1;whiteSpace=wrap;html=1;absoluteArcSize=1;arcSize=14;strokeWidth=2;" vertex="1" parent="vg-C_wfHYlq3jXJulKcA-71">
          <mxGeometry x="432" y="110" width="77.5" height="60" as="geometry" />
        </mxCell>
        <mxCell id="vg-C_wfHYlq3jXJulKcA-9" value="Add New User" style="rounded=1;whiteSpace=wrap;html=1;absoluteArcSize=1;arcSize=14;strokeWidth=2;" vertex="1" parent="vg-C_wfHYlq3jXJulKcA-71">
          <mxGeometry x="770" y="110" width="90" height="70" as="geometry" />
        </mxCell>
        <mxCell id="vg-C_wfHYlq3jXJulKcA-16" value="Error" style="rounded=1;whiteSpace=wrap;html=1;absoluteArcSize=1;arcSize=14;strokeWidth=2;" vertex="1" parent="vg-C_wfHYlq3jXJulKcA-71">
          <mxGeometry x="260" y="224" width="90" height="76" as="geometry" />
        </mxCell>
        <mxCell id="vg-C_wfHYlq3jXJulKcA-20" value="" style="endArrow=classic;html=1;rounded=0;strokeWidth=2;entryX=0;entryY=0.5;entryDx=0;entryDy=0;exitX=0.5;exitY=0;exitDx=0;exitDy=0;" edge="1" parent="vg-C_wfHYlq3jXJulKcA-71" source="vg-C_wfHYlq3jXJulKcA-16" target="vg-C_wfHYlq3jXJulKcA-8">
          <mxGeometry width="50" height="50" relative="1" as="geometry">
            <mxPoint x="325.58" y="224" as="sourcePoint" />
            <mxPoint x="325.58" y="154" as="targetPoint" />
            <Array as="points">
              <mxPoint x="305" y="140" />
            </Array>
          </mxGeometry>
        </mxCell>
        <mxCell id="vg-C_wfHYlq3jXJulKcA-21" value="" style="endArrow=classic;html=1;rounded=0;strokeWidth=2;entryX=1;entryY=0.5;entryDx=0;entryDy=0;" edge="1" parent="vg-C_wfHYlq3jXJulKcA-71">
          <mxGeometry width="50" height="50" relative="1" as="geometry">
            <mxPoint x="417" y="248.57999999999998" as="sourcePoint" />
            <mxPoint x="350" y="249" as="targetPoint" />
          </mxGeometry>
        </mxCell>
        <mxCell id="vg-C_wfHYlq3jXJulKcA-23" value="NO" style="edgeLabel;html=1;align=center;verticalAlign=middle;resizable=0;points=[];" vertex="1" connectable="0" parent="vg-C_wfHYlq3jXJulKcA-21">
          <mxGeometry x="0.0104" relative="1" as="geometry">
            <mxPoint as="offset" />
          </mxGeometry>
        </mxCell>
        <mxCell id="vg-C_wfHYlq3jXJulKcA-24" value="" style="endArrow=classic;html=1;rounded=0;strokeWidth=2;" edge="1" parent="vg-C_wfHYlq3jXJulKcA-71">
          <mxGeometry width="50" height="50" relative="1" as="geometry">
            <mxPoint x="471.25" y="299" as="sourcePoint" />
            <mxPoint x="471.75" y="359" as="targetPoint" />
          </mxGeometry>
        </mxCell>
        <mxCell id="vg-C_wfHYlq3jXJulKcA-25" value="YES" style="edgeLabel;html=1;align=center;verticalAlign=middle;resizable=0;points=[];" vertex="1" connectable="0" parent="vg-C_wfHYlq3jXJulKcA-24">
          <mxGeometry x="-0.1668" y="-1" relative="1" as="geometry">
            <mxPoint as="offset" />
          </mxGeometry>
        </mxCell>
        <mxCell id="vg-C_wfHYlq3jXJulKcA-26" value="" style="endArrow=classic;html=1;rounded=0;strokeWidth=2;" edge="1" parent="vg-C_wfHYlq3jXJulKcA-71">
          <mxGeometry width="50" height="50" relative="1" as="geometry">
            <mxPoint x="470.33" y="170" as="sourcePoint" />
            <mxPoint x="470.33" y="200" as="targetPoint" />
          </mxGeometry>
        </mxCell>
        <mxCell id="vg-C_wfHYlq3jXJulKcA-70" style="edgeStyle=orthogonalEdgeStyle;rounded=0;orthogonalLoop=1;jettySize=auto;html=1;strokeWidth=2;" edge="1" parent="vg-C_wfHYlq3jXJulKcA-71" source="vg-C_wfHYlq3jXJulKcA-27" target="vg-C_wfHYlq3jXJulKcA-69">
          <mxGeometry relative="1" as="geometry" />
        </mxCell>
        <mxCell id="vg-C_wfHYlq3jXJulKcA-74" value="YES" style="edgeLabel;html=1;align=center;verticalAlign=middle;resizable=0;points=[];" vertex="1" connectable="0" parent="vg-C_wfHYlq3jXJulKcA-70">
          <mxGeometry x="0.7386" relative="1" as="geometry">
            <mxPoint as="offset" />
          </mxGeometry>
        </mxCell>
        <mxCell id="vg-C_wfHYlq3jXJulKcA-27" value="UI" style="rounded=1;whiteSpace=wrap;html=1;absoluteArcSize=1;arcSize=14;strokeWidth=2;" vertex="1" parent="vg-C_wfHYlq3jXJulKcA-71">
          <mxGeometry x="430" y="360" width="81.5" height="70" as="geometry" />
        </mxCell>
        <mxCell id="vg-C_wfHYlq3jXJulKcA-30" value="User ID exists?" style="strokeWidth=2;html=1;shape=mxgraph.flowchart.decision;whiteSpace=wrap;" vertex="1" parent="vg-C_wfHYlq3jXJulKcA-71">
          <mxGeometry x="760" y="211" width="110" height="101" as="geometry" />
        </mxCell>
        <mxCell id="vg-C_wfHYlq3jXJulKcA-31" style="edgeStyle=orthogonalEdgeStyle;rounded=0;orthogonalLoop=1;jettySize=auto;html=1;exitX=0.5;exitY=1;exitDx=0;exitDy=0;exitPerimeter=0;" edge="1" parent="vg-C_wfHYlq3jXJulKcA-71" source="vg-C_wfHYlq3jXJulKcA-30" target="vg-C_wfHYlq3jXJulKcA-30">
          <mxGeometry relative="1" as="geometry" />
        </mxCell>
        <mxCell id="vg-C_wfHYlq3jXJulKcA-32" value="" style="endArrow=classic;html=1;rounded=0;strokeWidth=2;" edge="1" parent="vg-C_wfHYlq3jXJulKcA-71">
          <mxGeometry width="50" height="50" relative="1" as="geometry">
            <mxPoint x="814.8" y="182" as="sourcePoint" />
            <mxPoint x="814.8" y="212" as="targetPoint" />
          </mxGeometry>
        </mxCell>
        <mxCell id="vg-C_wfHYlq3jXJulKcA-34" value="" style="endArrow=classic;html=1;rounded=0;strokeWidth=2;" edge="1" parent="vg-C_wfHYlq3jXJulKcA-71">
          <mxGeometry width="50" height="50" relative="1" as="geometry">
            <mxPoint x="870" y="261.41" as="sourcePoint" />
            <mxPoint x="940" y="261.41" as="targetPoint" />
          </mxGeometry>
        </mxCell>
        <mxCell id="vg-C_wfHYlq3jXJulKcA-36" value="YES" style="edgeLabel;html=1;align=center;verticalAlign=middle;resizable=0;points=[];" vertex="1" connectable="0" parent="vg-C_wfHYlq3jXJulKcA-34">
          <mxGeometry x="-0.2331" y="1" relative="1" as="geometry">
            <mxPoint as="offset" />
          </mxGeometry>
        </mxCell>
        <mxCell id="vg-C_wfHYlq3jXJulKcA-37" value="Error" style="rounded=1;whiteSpace=wrap;html=1;absoluteArcSize=1;arcSize=14;strokeWidth=2;" vertex="1" parent="vg-C_wfHYlq3jXJulKcA-71">
          <mxGeometry x="940" y="212" width="90" height="70" as="geometry" />
        </mxCell>
        <mxCell id="vg-C_wfHYlq3jXJulKcA-39" value="User Added" style="rounded=1;whiteSpace=wrap;html=1;absoluteArcSize=1;arcSize=14;strokeWidth=2;" vertex="1" parent="vg-C_wfHYlq3jXJulKcA-71">
          <mxGeometry x="770" y="372" width="95" height="70" as="geometry" />
        </mxCell>
        <mxCell id="vg-C_wfHYlq3jXJulKcA-40" value="" style="endArrow=classic;html=1;rounded=0;strokeWidth=2;" edge="1" parent="vg-C_wfHYlq3jXJulKcA-71">
          <mxGeometry width="50" height="50" relative="1" as="geometry">
            <mxPoint x="815.29" y="311" as="sourcePoint" />
            <mxPoint x="815" y="372" as="targetPoint" />
          </mxGeometry>
        </mxCell>
        <mxCell id="vg-C_wfHYlq3jXJulKcA-41" value="NO" style="edgeLabel;html=1;align=center;verticalAlign=middle;resizable=0;points=[];" vertex="1" connectable="0" parent="vg-C_wfHYlq3jXJulKcA-40">
          <mxGeometry x="-0.1802" y="-1" relative="1" as="geometry">
            <mxPoint as="offset" />
          </mxGeometry>
        </mxCell>
        <mxCell id="vg-C_wfHYlq3jXJulKcA-42" value="" style="endArrow=classic;html=1;rounded=0;strokeWidth=2;exitX=0;exitY=0.5;exitDx=0;exitDy=0;entryX=1;entryY=0.5;entryDx=0;entryDy=0;" edge="1" parent="vg-C_wfHYlq3jXJulKcA-71" source="vg-C_wfHYlq3jXJulKcA-39" target="vg-C_wfHYlq3jXJulKcA-8">
          <mxGeometry width="50" height="50" relative="1" as="geometry">
            <mxPoint x="551" y="340" as="sourcePoint" />
            <mxPoint x="601" y="290" as="targetPoint" />
            <Array as="points">
              <mxPoint x="672" y="410" />
              <mxPoint x="672" y="140" />
            </Array>
          </mxGeometry>
        </mxCell>
        <mxCell id="vg-C_wfHYlq3jXJulKcA-44" value="" style="endArrow=none;html=1;rounded=0;strokeWidth=2;entryX=0.5;entryY=1;entryDx=0;entryDy=0;" edge="1" parent="vg-C_wfHYlq3jXJulKcA-71" target="vg-C_wfHYlq3jXJulKcA-37">
          <mxGeometry width="50" height="50" relative="1" as="geometry">
            <mxPoint x="672" y="400" as="sourcePoint" />
            <mxPoint x="921" y="295" as="targetPoint" />
            <Array as="points">
              <mxPoint x="672" y="465" />
              <mxPoint x="985" y="465" />
            </Array>
          </mxGeometry>
        </mxCell>
        <mxCell id="vg-C_wfHYlq3jXJulKcA-65" value="" style="group" vertex="1" connectable="0" parent="vg-C_wfHYlq3jXJulKcA-71">
          <mxGeometry y="420" width="482" height="320.25" as="geometry" />
        </mxCell>
        <mxCell id="vg-C_wfHYlq3jXJulKcA-46" value="" style="strokeWidth=2;html=1;shape=mxgraph.flowchart.annotation_2;align=left;labelPosition=right;pointerEvents=1;rotation=90;" vertex="1" parent="vg-C_wfHYlq3jXJulKcA-65">
          <mxGeometry x="266.75" y="-84.75" width="88" height="257.5" as="geometry" />
        </mxCell>
        <mxCell id="vg-C_wfHYlq3jXJulKcA-48" value="Add" style="shape=parallelogram;html=1;strokeWidth=2;perimeter=parallelogramPerimeter;whiteSpace=wrap;rounded=1;arcSize=12;size=0.23;" vertex="1" parent="vg-C_wfHYlq3jXJulKcA-65">
          <mxGeometry x="132" y="89.25" width="100" height="60" as="geometry" />
        </mxCell>
        <mxCell id="vg-C_wfHYlq3jXJulKcA-49" value="Delete" style="shape=parallelogram;html=1;strokeWidth=2;perimeter=parallelogramPerimeter;whiteSpace=wrap;rounded=1;arcSize=12;size=0.23;" vertex="1" parent="vg-C_wfHYlq3jXJulKcA-65">
          <mxGeometry x="382" y="89.25" width="100" height="60" as="geometry" />
        </mxCell>
        <mxCell id="vg-C_wfHYlq3jXJulKcA-50" value="Update" style="shape=parallelogram;html=1;strokeWidth=2;perimeter=parallelogramPerimeter;whiteSpace=wrap;rounded=1;arcSize=12;size=0.23;" vertex="1" parent="vg-C_wfHYlq3jXJulKcA-65">
          <mxGeometry x="257" y="89.25" width="100" height="60" as="geometry" />
        </mxCell>
        <mxCell id="vg-C_wfHYlq3jXJulKcA-51" value="Search" style="shape=parallelogram;html=1;strokeWidth=2;perimeter=parallelogramPerimeter;whiteSpace=wrap;rounded=1;arcSize=12;size=0.23;" vertex="1" parent="vg-C_wfHYlq3jXJulKcA-65">
          <mxGeometry y="90.25" width="100" height="60" as="geometry" />
        </mxCell>
        <mxCell id="vg-C_wfHYlq3jXJulKcA-52" value="" style="endArrow=none;html=1;rounded=0;strokeWidth=2;entryX=0.5;entryY=1;entryDx=0;entryDy=0;entryPerimeter=0;" edge="1" parent="vg-C_wfHYlq3jXJulKcA-65" target="vg-C_wfHYlq3jXJulKcA-46">
          <mxGeometry width="50" height="50" relative="1" as="geometry">
            <mxPoint x="62" y="90.25" as="sourcePoint" />
            <mxPoint x="62" y="30.25" as="targetPoint" />
            <Array as="points">
              <mxPoint x="62" y="44.25" />
            </Array>
          </mxGeometry>
        </mxCell>
        <mxCell id="vg-C_wfHYlq3jXJulKcA-53" value="" style="endArrow=none;html=1;rounded=0;strokeWidth=2;" edge="1" parent="vg-C_wfHYlq3jXJulKcA-65">
          <mxGeometry width="50" height="50" relative="1" as="geometry">
            <mxPoint x="311" y="90.25" as="sourcePoint" />
            <mxPoint x="311" y="30.25" as="targetPoint" />
          </mxGeometry>
        </mxCell>
        <mxCell id="vg-C_wfHYlq3jXJulKcA-54" value="" style="strokeWidth=2;html=1;shape=mxgraph.flowchart.database;whiteSpace=wrap;" vertex="1" parent="vg-C_wfHYlq3jXJulKcA-65">
          <mxGeometry x="206.75" y="260.25" width="60" height="60" as="geometry" />
        </mxCell>
        <mxCell id="vg-C_wfHYlq3jXJulKcA-55" style="edgeStyle=orthogonalEdgeStyle;rounded=0;orthogonalLoop=1;jettySize=auto;html=1;entryX=0;entryY=0.5;entryDx=0;entryDy=0;entryPerimeter=0;strokeWidth=2;" edge="1" parent="vg-C_wfHYlq3jXJulKcA-65" source="vg-C_wfHYlq3jXJulKcA-51" target="vg-C_wfHYlq3jXJulKcA-54">
          <mxGeometry relative="1" as="geometry">
            <Array as="points">
              <mxPoint x="52" y="290.25" />
            </Array>
          </mxGeometry>
        </mxCell>
        <mxCell id="vg-C_wfHYlq3jXJulKcA-56" style="edgeStyle=orthogonalEdgeStyle;rounded=0;orthogonalLoop=1;jettySize=auto;html=1;entryX=1;entryY=0.5;entryDx=0;entryDy=0;entryPerimeter=0;strokeWidth=2;" edge="1" parent="vg-C_wfHYlq3jXJulKcA-65" source="vg-C_wfHYlq3jXJulKcA-49" target="vg-C_wfHYlq3jXJulKcA-54">
          <mxGeometry relative="1" as="geometry">
            <Array as="points">
              <mxPoint x="432" y="290.25" />
            </Array>
          </mxGeometry>
        </mxCell>
        <mxCell id="vg-C_wfHYlq3jXJulKcA-57" value="" style="endArrow=none;html=1;rounded=0;strokeWidth=2;" edge="1" parent="vg-C_wfHYlq3jXJulKcA-65">
          <mxGeometry width="50" height="50" relative="1" as="geometry">
            <mxPoint x="182" y="290.25" as="sourcePoint" />
            <mxPoint x="181.71" y="150.25" as="targetPoint" />
          </mxGeometry>
        </mxCell>
        <mxCell id="vg-C_wfHYlq3jXJulKcA-58" value="" style="endArrow=none;html=1;rounded=0;strokeWidth=2;" edge="1" parent="vg-C_wfHYlq3jXJulKcA-65">
          <mxGeometry width="50" height="50" relative="1" as="geometry">
            <mxPoint x="310.75" y="289.25" as="sourcePoint" />
            <mxPoint x="310.46000000000004" y="149.25" as="targetPoint" />
          </mxGeometry>
        </mxCell>
        <mxCell id="vg-C_wfHYlq3jXJulKcA-67" style="edgeStyle=orthogonalEdgeStyle;rounded=0;orthogonalLoop=1;jettySize=auto;html=1;entryX=0;entryY=0.5;entryDx=0;entryDy=0;entryPerimeter=0;strokeWidth=2;" edge="1" parent="vg-C_wfHYlq3jXJulKcA-71" source="vg-C_wfHYlq3jXJulKcA-27" target="vg-C_wfHYlq3jXJulKcA-46">
          <mxGeometry relative="1" as="geometry">
            <Array as="points">
              <mxPoint x="311" y="390" />
            </Array>
          </mxGeometry>
        </mxCell>
        <mxCell id="vg-C_wfHYlq3jXJulKcA-69" value="Stop" style="strokeWidth=2;html=1;shape=mxgraph.flowchart.terminator;whiteSpace=wrap;" vertex="1" parent="vg-C_wfHYlq3jXJulKcA-71">
          <mxGeometry x="560" y="640" width="100" height="60" as="geometry" />
        </mxCell>
        <mxCell id="vg-C_wfHYlq3jXJulKcA-72" value="Exit?" style="strokeWidth=2;html=1;shape=mxgraph.flowchart.decision;whiteSpace=wrap;" vertex="1" parent="vg-C_wfHYlq3jXJulKcA-71">
          <mxGeometry x="560" y="467" width="100" height="100" as="geometry" />
        </mxCell>
      </root>
    </mxGraphModel>
  </diagram>
</mxfile>
